<svg width="20" height="20" viewBox="0 0 20 20" fill="none" xmlns="http://www.w3.org/2000/svg">
<path fill-rule="evenodd" clip-rule="evenodd" d="M0.356986 0.323474C0.791987 -0.109355 1.4955 -0.107595 1.92833 0.327405L9.9878 8.42731L18.1039 0.324781C18.5382 -0.108772 19.2417 -0.108185 19.6752 0.326094C20.1088 0.760372 20.1082 1.46389 19.6739 1.89744L11.5552 10.0026L19.6174 18.1052C20.0502 18.5402 20.0484 19.2437 19.6134 19.6765C19.1784 20.1094 18.4749 20.1076 18.0421 19.6726L9.98255 11.5726L1.89613 19.6455C1.46185 20.0791 0.758334 20.0785 0.324781 19.6442C-0.108772 19.2099 -0.108185 18.5064 0.326094 18.0729L8.41513 9.99734L0.353055 1.89482C-0.0797743 1.45982 -0.078014 0.756302 0.356986 0.323474Z" fill="white"/>
</svg>
