<svg width="22" height="22" viewBox="0 0 22 22" fill="none" xmlns="http://www.w3.org/2000/svg">
<path fill-rule="evenodd" clip-rule="evenodd" d="M11 1.57143C5.79274 1.57143 1.57143 5.79274 1.57143 11C1.57143 16.2073 5.79274 20.4286 11 20.4286C16.2073 20.4286 20.4286 16.2073 20.4286 11C20.4286 5.79274 16.2073 1.57143 11 1.57143ZM0 11C0 4.92487 4.92487 0 11 0C17.0751 0 22 4.92487 22 11C22 17.0751 17.0751 22 11 22C4.92487 22 0 17.0751 0 11Z" fill="#1C1C28"/>
<path d="M12.5714 6.28571C12.5714 7.15359 11.8679 7.85714 11 7.85714C10.1321 7.85714 9.42857 7.15359 9.42857 6.28571C9.42857 5.41784 10.1321 4.71429 11 4.71429C11.8679 4.71429 12.5714 5.41784 12.5714 6.28571Z" fill="#1C1C28"/>
<path d="M12.5714 10.2143C12.5714 11.0822 11.8679 11.7857 11 11.7857C10.1321 11.7857 9.42857 11.0822 9.42857 10.2143C9.42857 9.34641 10.1321 8.64286 11 8.64286C11.8679 8.64286 12.5714 9.34641 12.5714 10.2143Z" fill="#1C1C28"/>
<path d="M12.5714 15.7143C12.5714 16.5822 11.8679 17.2857 11 17.2857C10.1321 17.2857 9.42857 16.5822 9.42857 15.7143C9.42857 14.8464 10.1321 14.1429 11 14.1429C11.8679 14.1429 12.5714 14.8464 12.5714 15.7143Z" fill="#1C1C28"/>
<path d="M9.42857 10.2143H12.5714V15.7143H9.42857V10.2143Z" fill="#1C1C28"/>
<path d="M7.85714 9.42857C7.85714 8.99463 8.20892 8.64286 8.64286 8.64286H11V11H8.64286C8.20892 11 7.85714 10.6482 7.85714 10.2143V9.42857Z" fill="#1C1C28"/>
</svg>
